<svg version="1.1" id="Layer_1" xmlns="http://www.w3.org/2000/svg" xmlns:xlink="http://www.w3.org/1999/xlink" x="0px" y="0px" viewBox="0 0 170 4.9" style="enable-background:new 0 0 170 4.9;" xml:space="preserve"><style type="text/css">.line{fill: #47ada4;}</style><path id="Group_1044" class="line" d="M58.4,4.7c23.3-1.4,47.5-1.2,70.9-1.1c12.8,0.1,26.1,0.2,39,0c1,0,1.7-0.8,1.7-1.8s-0.8-1.7-1.7-1.7l0,0c-12.9,0.2-26.1,0.1-38.9,0C105.9,0,81.6-0.2,58.2,1.2h-0.1c-3.5,0.5-6.9,0-10.5-0.4c-3-0.4-6-0.8-9.2-0.7h-0.1c-4.1,0.5-8.2,0.4-12.5,0.2c-2.5-0.1-5.1-0.2-7.8-0.2c-1.3,0.1-2.7,0.3-4.2,0.4c-4.1,0.5-8.3,1-11.5,0C1.4,0.2,0.4,0.8,0.1,1.7s0.3,1.9,1.2,2.2C5.1,5,9.9,4.5,14.1,4c1.4-0.2,2.8-0.3,3.9-0.4c2.5,0,5,0.1,7.4,0.2c4.2,0.2,8.6,0.4,13-0.2c2.8-0.1,5.6,0.2,8.5,0.6c2.5,0.3,5.1,0.7,7.7,0.7C55.9,4.9,57.1,4.9,58.4,4.7z"></path></svg>