<svg data-v-f9169804="" width="60" height="60" viewBox="0 0 60 60"><path fill=" #fc5c5c" d="M38.13 46.79a.69.69 0 0 0-.73-.09 17.6 17.6 0 0 1-8.22 1.65 17.3 17.3 0 0 1-6.57-1.65.71.71 0 0 0-.74.09.7.7 0 0 0-.25.69L23.44 56a.7.7 0 0 0 .68.55H35.8a.7.7 0 0 0 .68-.55l1.9-8.57a.72.72 0 0 0-.25-.64"></path><path fill="none" stroke=" #212121" stroke-linecap="round" stroke-linejoin="round" stroke-width="1.4" d="M39.4 42.21s17.1 3.42 17.1 13.67m-39.32-3.42-1.71 1.71 1.71 1.71m6.84 0L20.6 41.47l-3.42 1.11-1.71 8.17 3.42 1.71m23.93 3.42 1.71-1.71-1.71-1.71m-1.71 0 3.42-1.71-1.71-8.17-3.42-1.11L36 55.88M23.6 33.46c4.67 6.14 12.24 4.46 15.34-5M20.6 42.21S3.5 45.63 3.5 55.88m22.22-20.14c-.12 3.29-1.83 6.47-5.12 6.47m13.68-6.51c.11 3.31 1.82 6.51 5.12 6.51"></path><path fill=" #fc5c5c" d="M36.61 4.32c-2.91-1.5-6-1.16-9.25 1a6.93 6.93 0 0 0-6.8.13C13 10.13 12.9 31.06 12.9 32a.86.86 0 0 0 .72.84l10.26 1.66a.68.68 0 0 0 .74-.46c.15-.47-.34-1.1-.34-1.1a17.1 17.1 0 0 1-2.85-6.33.86.86 0 0 0-.83-.61c-.94 0-1.43-.84-1.68-1.55a4.85 4.85 0 0 1 0-3.58c1.1-.06 1.54-1.32 2.14-3 1.23-3.55 2.54-6.42 6.12-5.52a.84.84 0 0 0 .72-.14A4 4 0 0 1 33 12c3.76 2.5 6.67 10.15 5.55 14.61-.13.54-.28 1.07-.44 1.57l.42 8.9a.85.85 0 0 0 .85.85.9.9 0 0 0 .52-.17c.73-.55 7.18-5.49 7.18-9.23.02-7.69-3.72-20.73-10.47-24.21"></path></svg>