<svg version="1.1" id="Layer_1" xmlns="http://www.w3.org/2000/svg" xmlns:xlink="http://www.w3.org/1999/xlink" x="0px" y="0px" viewBox="0 0 67.5 69.4" style="enable-background:new 0 0 67.5 69.4;" xml:space="preserve"><style type="text/css">.step3_0{enable-background:new;}.step3_1{fill: #47ada4;}</style><g id="Group_985" transform="translate(-76.805 -1249.025)"><g class="step3_0"><path class="step3_1" d="M115.3,1282c0,0.5,1.6,0.6,2,0.7c1.5,0.5,3,2.1,3,3.7c0,6.3-9.3,11-14.2,12.8c-1.5,0.5-4.1,1.5-5.7,1.5c-1,0-1.8-0.6-1.8-1.7c0-2.2,2.5-2,4-2c3.3,0,13.5-5.3,13.5-9.2c0-2-1.4-2.8-3.2-2.8c-1.9,0-3.7,0.8-5.6,0.8c-1.2,0-1.9-0.5-1.9-1.7c0-3,4.6-2.8,6.6-3.3c2.3-0.6,6.5-4.4,6.5-6.8c0-1.3-1.3-2.1-2.5-2.1c-4.4,0-6.7,3.7-8.4,3.7c-1,0-2-0.6-2-1.7c0-1.8,1.2-2.6,2.8-3h0.1c0.9,0,4.9-2.4,8.6-2.4c2.4,0,5.2,0.8,5.2,3.7C122.3,1277.2,115.3,1281.1,115.3,1282z"></path></g><g id="Path_1227"><path class="step3_1" d="M110.8,1318.4c-5.7,0-11.6-1.6-17.5-4.9l-0.1-0.1c-18.7-12.7-18.8-30.3-12.7-42.5c7.5-14.9,27-26.8,48.4-19.4c0.9,0.3,1.4,1.3,1.1,2.2c-0.3,0.9-1.3,1.4-2.2,1.1c-19.6-6.8-37.4,4.1-44.2,17.7c-8.3,16.6,0.4,30.5,11.4,38c10.7,5.9,21.7,5.8,30.9-0.3c9.8-6.6,15.8-19.1,14.5-30.5c-1.2-10-7.6-17.6-18.1-21.6c-0.9-0.3-1.4-1.3-1-2.3c0.3-0.9,1.4-1.4,2.3-1c11.8,4.4,19,13.1,20.3,24.4c1.5,12.6-5.1,26.6-16,33.8C122.6,1316.6,116.8,1318.4,110.8,1318.4z"></path></g></g></svg>