<svg xmlns="http://www.w3.org/2000/svg" viewBox="0 0 1442 1368.5"><style type="text/css">.st0{fill:#81BF9D;}.st2{fill:#FFFFFF;}.st3{font-family:'Open Sans',sans-serif;font-weight: bold;}.st4{font-size:64.24px;}.st5{font-family:'Open Sans',sans-serif;}.st6{font-size:48.18px;}.st7{fill:#9f9f9f;}.st8{fill:#f1994e;}.st9{font-size:56.21px;}.st10{fill:#2A5F40;}.st11{font-family:'Open Sans',sans-serif;font-weight: bold;}.st13{fill:#D7EBE0;}.st14{fill:#A0CEB4;}.st15{fill:#445C67;}.st16{font-size:44.17px;}.st17{font-size:52.2px;}.st18{fill:#FFC18C;}</style><path class="st0" d="M787.6,932.7L787.6,932.7V599.5c0,8.1,4.8,16,14.2,23.4c11.7,8.5,24.8,15,38.7,19.2c34.1,11.4,79.5,17.6,127.8,17.6c48,0,93.2-6.2,127.3-17.5c13.9-4.1,27-10.6,38.8-19c9.5-7.4,14.4-15.2,14.6-23.3v332.2c-0.2-7.9-5-15.6-14.2-22.9c-11.7-8.5-24.8-15-38.7-19.1c-34.1-11.4-79.5-17.6-127.8-17.6s-93.6,6.3-127.8,17.6c-13.9,4.2-27,10.6-38.7,19.1C792.4,916.7,787.6,924.6,787.6,932.7L787.6,932.7z"></path><linearGradient id="pkvDeLinearGradientPreis2" gradientUnits="userSpaceOnUse" x1="641.3117" y1="-1193.6514" x2="637.2917" y2="-1193.6514" gradientTransform="matrix(90 0 0 144 -57062.875 172774.3281)"><stop offset="0" style="stop-color:#F2994E"></stop><stop offset="0.5" style="stop-color:#FFB475"></stop><stop offset="1" style="stop-color:#F2994E"></stop></linearGradient><path style="fill:url(#pkvDeLinearGradientPreis2);" d="M474.5,1177.6c-48.3,0-93.6-6.3-127.8-17.6c-13.9-4.2-26.9-10.6-38.7-19.1c-9.4-7.4-14.2-15.3-14.2-23.4V599.5c0,8.1,4.8,16,14.2,23.4c11.7,8.5,24.8,15,38.7,19.1c34.1,11.4,79.5,17.7,127.8,17.7s93.6-6.3,127.8-17.7c13.9-4.2,27-10.6,38.7-19.1c9.4-7.4,14.2-15.3,14.2-23.5v518c0,8.1-4.8,16-14.2,23.4c-11.7,8.5-24.8,15-38.7,19.1C568.1,1171.4,522.7,1177.6,474.5,1177.6z"></path><text transform="matrix(1 0 0 1 841.0912 764.0554)" class="st2 st3 st4">423,43 €</text><text transform="matrix(1 0 0 1 863.2313 820.2753)" class="st2 st5 st6">Ersparnis</text><path class="st7" d="M215.5,280.6C72,449.2,45.1,667,139.7,893.9c0.8,3,2.9,5.4,5.8,6.7c2.2,1.1,4.7,1.2,6.9,0.3c3.5-0.8,6.4-3.2,7.9-6.4c0.9-2.1,0.8-4.5-0.2-6.6C69.8,666.8,95.6,455.6,232.7,293C388.7,110,667.7,22.1,911,79c228,55,388.6,223.5,452.3,474.4c43.4,278.4-44.9,614.8-422.3,725.4c-307.3,90-729.4-29.2-906.3-427.6c-2.5-4.7-8.2-6.7-13.1-4.6c-2.3,1.1-4.1,3.1-5,5.6c-0.9,2.4-0.9,5.1,0.2,7.5c35.7,80.9,84.5,155.3,144.7,220.2c213.8,229.4,535.8,290.5,784.5,218.4c255.7-74.9,504.4-310.8,435.6-748.2l-0.3-4.3C1350,420.7,1295,315,1218,232.4C1137.3,145.8,1034.8,87.8,913.5,60h-0.1C663.5-0.7,376.5,89.9,215.5,280.6"></path><text transform="matrix(1 0 0 1 343.1513 278.2153)" class="st8 st3 st9" style="text-decoration: underline;">GKV</text><text transform="matrix(1 0 0 1 346.7813 438.8253)" class="st10 st11 st4">631,18 €</text><text transform="matrix(1 0 0 1 329.4713 495.0353)" class="st10 st5 st6">pro Monat**</text><text transform="matrix(1 0 0 1 810.9913 266.1653)" class="st3 st9 st10" style="text-decoration: underline;">PKV</text><text transform="matrix(1 0 0 1 834.3214 438.8253)" class="st10 st11 st4">207,75 €</text><text transform="matrix(1 0 0 1 830.3013 495.0353)" class="st10 st5 st6">pro Monat*</text><linearGradient id="pkvDeLinearGradientPreis3" gradientUnits="userSpaceOnUse" x1="641.4168" y1="-1196.9629" x2="645.4368" y2="-1196.9629" gradientTransform="matrix(90 0 0 61 -56939.875 74069.8984)"><stop offset="0" style="stop-color:#D7F3E4"></stop><stop offset="0.5" style="stop-color:#F9FBFA"></stop><stop offset="1" style="stop-color:#D7F3E4"></stop></linearGradient><path style="fill:url(#pkvDeLinearGradientPreis3);" d="M968.3,1177.6c-48.3,0-93.6-6.3-127.8-17.6c-13.9-4.2-27-10.6-38.7-19.1c-9.4-7.4-14.2-15.3-14.2-23.4c0-1.3,0.1-2.7,0.4-4h-0.4V932.7c0,8.1,4.8,16,14.2,23.4c11.7,8.5,24.8,15,38.7,19.1c34.1,11.4,79.5,17.6,127.8,17.6s93.6-6.3,127.8-17.6c13.9-4.2,27-10.6,38.7-19.1c9.4-7.4,14.2-15.3,14.2-23.4v180.7h-0.4c0.3,1.3,0.4,2.7,0.4,4c0,8.1-4.8,16-14.2,23.4c-11.7,8.5-24.8,15-38.7,19.2C1062,1171.4,1016.6,1177.6,968.3,1177.6z"></path><ellipse class="st13" cx="968.3" cy="932.7" rx="180.7" ry="60.2"></ellipse><ellipse class="st14" cx="968.3" cy="599.4" rx="180.7" ry="60.2"></ellipse><circle class="st15" cx="1253.4" cy="607.5" r="164.6"></circle><text transform="matrix(1 0 0 1 1127.5312 583.3753)" class="st2 st5 st16">Bis zu</text><text transform="matrix(1 0 0 1 1259.1112 583.3753)" class="st2 st11 st17">67%</text><text transform="matrix(1 0 0 1 1147.8512 631.5554)" class="st2 st5 st16">im Monat</text><text transform="matrix(1 0 0 1 1175.3213 679.7353)" class="st2 st5 st16">sparen**</text><ellipse class="st18" cx="474.5" cy="599.4" rx="180.7" ry="60.2"></ellipse></svg>