<svg xmlns="http://www.w3.org/2000/svg" width="93.038" height="184.443" viewBox="0 0 93.038 184.443"><g id="Group_1047" data-name="Group 1047" transform="translate(-230.88 -933.188)"><path id="Path_1275" data-name="Path 1275" d="M-1982.756-373.628c9.99.358,17.4,7.8,25.485,12.372a103.644,103.644,0,0,1,29.33,26.066c17.305,25.869,14.333,60.768-3.543,85.8-16.167,22.274-44.745,34.348-69.079,48.386" transform="translate(2238.566 1308.628)" fill="none" stroke="#80CBC4" stroke-linecap="round" stroke-width="3.5"></path><path id="Path_1278" data-name="Path 1278" d="M-1994.563-218.3c-1.7.749-3.1,3.388-3.966,4.937-.8,1.444-1.7,2.679-2.42,4.16-1.377,2.818-2.865,5.8-4.375,8.494,1.511.894,2.972,2.766,4.53,3.334a2.806,2.806,0,0,1,1.589.107q.759.663,1.563,1.269a14.6,14.6,0,0,0,1.984.849c2.385.645,4.958.968,7.369,1.836,2.012.724,3.943.562,6.113.562" transform="translate(2238.566 1308.628)" fill="none" stroke="#80CBC4" stroke-linecap="round" stroke-width="3.5"></path></g></svg>