<svg version="1.1" id="Layer_1" xmlns="http://www.w3.org/2000/svg" xmlns:xlink="http://www.w3.org/1999/xlink" x="0px" y="0px" viewBox="0 0 69.4 69.7" style="enable-background:new 0 0 69.4 69.7;" xml:space="preserve"><style type="text/css">.step1_0{enable-background:new;}.step1_1{fill: #47ada4;}</style><g id="Group_983" transform="translate(-87.241 -899.261)"><g class="step1_0"><path class="step1_1" d="M125.1,929c-2.2,5.9-6.5,14.2-6.5,20.5c0,0.4-0.2,1-0.7,1c-1.4,0-1.8-1.5-1.8-2.6c0-4.8,3.3-12.9,4.9-17.6c0.4-1.1,1.1-2.5,1.1-3.7c0-0.2-0.1-0.7-0.4-0.7c-0.9,0-1.8,1.2-3.1,1.2c-1,0-1.9-0.5-1.9-1.6c0-0.5,0.2-1.2,0.8-1.2c2.6-0.5,6.3-5.2,7.9-5.2c1.3,0,2.9,1.2,2.9,2.6C128.2,922.8,125.7,927.4,125.1,929z"></path></g><g id="Path_1225"><path class="step1_1" d="M121.2,968.9c-5.5,0-11.1-1.4-16.1-4.3c-12.6-7.2-19.6-22-17.5-36.8c2-14.2,12-24.7,26.6-28.2c0.9-0.2,1.9,0.4,2.1,1.3c0.1,0.4,0.1,0.7-0.1,1.1c9.5-2.5,21.1-1.1,28,2.9c7.2,4.1,11.7,12.4,12.3,22.7c0.8,13.6-5.2,27-15.7,34.8C135.1,966.7,128.2,968.9,121.2,968.9z M108.9,905.1c-9.9,4.3-16.3,12.5-17.8,23.3c-1.9,13.4,4.4,26.8,15.8,33.3c10.1,5.8,22.7,4.9,31.9-2.1c9.4-7,15.1-19.5,14.3-31.8c-0.5-9.1-4.4-16.3-10.6-19.8c-9-5.2-24.9-4.8-32.7,0.7c-5,3.6-8.9,8.6-11.4,14.3c-0.4,0.9-1.4,1.3-2.3,0.9c-0.9-0.4-1.3-1.4-0.9-2.3c2.7-6.3,7-11.8,12.5-15.8C108.2,905.6,108.5,905.3,108.9,905.1z"></path></g></g></svg>