<svg version="1.1" id="Layer_1" xmlns="http://www.w3.org/2000/svg" xmlns:xlink="http://www.w3.org/1999/xlink" x="0px" y="0px" viewBox="0 0 65.6 68" style="enable-background:new 0 0 65.6 68;" xml:space="preserve"><style type="text/css">.step2_0{enable-background:new;}.step2_1{fill: #47ada4;}</style><g id="Group_984" transform="translate(-92.559 -1083.923)"><g class="step2_0"><path class="step2_1" d="M117.1,1127.5c0,0.6,3.6,0.3,4.3,0.3c1.9,0,12.1,0.4,12.1,2c0,1.1-5.6,0.5-6.2,0.5c-3,0-6.1,0.1-9.1,0.8c-1.5,0.3-3.2,1.1-4.8,1.1c-1.6,0-2.3-1.2-2.3-2.7c0-1,0.4-2,1.2-2.6c3-2.5,17.2-15.1,17.2-18.9c0-0.6-0.4-1.2-1.1-1.2c-3.8,0-6,5.4-7.9,5.4c-1,0-2.1-0.7-2.1-1.8c0-2.6,6.1-6.3,8.2-7.4c0.9-0.5,2-0.7,3-0.7c2.5,0,4.2,1.6,4.2,4.2C133.8,1113.5,117.1,1125.9,117.1,1127.5z"></path></g><g id="Path_1226"><path class="step2_1" d="M123.1,1152c-18.6,0-25.6-10.9-28.2-17.7c-5.8-15.2,0.2-36,13.1-45.3c6-4.4,18.6-9.7,35.3,3.6c0.2,0.2,0.4,0.4,0.5,0.7c5.9,3.8,10.3,9.2,12.6,15.4l0.2,0l0.4,1.6l0.2,0.6l-0.1,0c2.3,10.2,0.5,20.1-5.1,27.8c-5.5,7.6-14,12.2-24,13.1C126.3,1151.9,124.6,1152,123.1,1152z M107.5,1093.8c-9.7,9.2-14.1,26.6-9.4,39.2c4.2,11.2,14.7,16.6,29.5,15.3c9-0.8,16.7-4.9,21.5-11.7c5-7,6.6-16,4.4-25.3c-0.1-0.3-0.3-0.6-0.3-1c-2.7-7.8-9.2-14.1-18-17.4c-8.8-3.3-18.3-2.8-25.5,1.4C109,1094.7,108,1094.5,107.5,1093.8z"></path></g></g></svg>